<svg width="31" height="47" viewBox="0 0 31 47" fill="none" xmlns="http://www.w3.org/2000/svg">
<path d="M8.78346 4.82021H8.23801C7.14709 4.82021 6.60163 5.44279 6.60163 6.68795V40.2541C6.60163 40.7877 6.74708 41.2146 7.038 41.5348C7.36527 41.8906 7.76527 42.0685 8.23801 42.0685H8.78346V46.4443H8.23801C6.1289 46.4443 4.38343 45.8751 3.0016 44.7367C1.65613 43.6338 0.983398 42.1396 0.983398 40.2541V6.68795C0.983398 4.80242 1.65613 3.29043 3.0016 2.15199C4.38343 1.01355 6.1289 0.444336 8.23801 0.444336H8.78346V4.82021Z" fill="white"/>
<path d="M22.7379 42.0685H23.2288C23.7015 42.0685 24.1015 41.9084 24.4288 41.5882C24.7561 41.268 24.9197 40.8055 24.9197 40.2007V6.63459C24.9197 6.10095 24.7561 5.67403 24.4288 5.35385C24.1015 4.99809 23.7015 4.82021 23.2288 4.82021H22.7379V0.444336H23.2288C25.3379 0.444336 27.0652 1.01355 28.4107 2.15199C29.7925 3.25485 30.4834 4.74905 30.4834 6.63459V40.2007C30.4834 42.0863 29.7925 43.5982 28.4107 44.7367C27.0652 45.8751 25.3379 46.4443 23.2288 46.4443H22.7379V42.0685Z" fill="white"/>
</svg>
